# xmcd CD database file
#
# Track frame offsets:
#	150
#	29429
#	60035
#	85976
#	115112
#	141270
#
# Disc length: 2198 seconds
#
# Revision: 0
# Processed by: cddbd v1.5.1PL2 Copyright (c) Steve Scherf et al.
# Submitted via: CDex 1.51
#
DISCID=45089406
DTITLE=Tanga Wekwa Sando - Wake
DYEAR=1900
DGENRE=Zimbabwean
TTITLE0=Buhera
TTITLE1=Nyenyedzi
TTITLE2=Wake
TTITLE3=Mariana
TTITLE4=Dai
TTITLE5=Bharanzi
EXTD=
EXTT0=
EXTT1=
EXTT2=
EXTT3=
EXTT4=
EXTT5=
PLAYORDER=
